# xmcd CD database file
#
# Track frame offsets:
#	150
#	26448
#	45564
#	67143
#	97620
#	122041
#	150564
#	181292
#	210375
#	235929
#	255830
#	279608
#
# Disc length: 3992 seconds
#
# Revision: 0
# Processed by: cddbd v1.5.2PL0 Copyright (c) Steve Scherf et al.
# Submitted via: CDex 1.70beta2
#
DISCID=940f960c
DTITLE=Aish Kodesh Sampler - Another Side of Jewish Music
DYEAR=2007
DGENRE=Jewish
TTITLE0=Bulgariian Chicks - Balkan Beat Box
TTITLE1=Aryot Yehuda - Aharit Hayamim
TTITLE2=Sibuyele Ekhaya - Adama Kadmon
TTITLE3=Children of the Palace - Kabbalah Dream Orchestra
TTITLE4=Sof Davar - Eden MiQedem
TTITLE5=Be'er Mayim Chaim - Bat Ayin Band
TTITLE6=Yismechu - Shlomo Katz
TTITLE7=Desert Call - Eden MiQedem
TTITLE8=Hodu Lashem - Adama Kadmon
TTITLE9=Awaken - Kabbalah Dream Orchestra
TTITLE10=Adir Adirim - Balkan Beat Box
TTITLE11=My Garden - Y-Love
EXTD=YEAR: 2007
EXTT0=
EXTT1=
EXTT2=
EXTT3=
EXTT4=
EXTT5=
EXTT6=
EXTT7=
EXTT8=
EXTT9=
EXTT10=
EXTT11=
PLAYORDER=
